<?xml version="1.0" standalone="no"?><!DOCTYPE svg PUBLIC "-//W3C//DTD SVG 1.1//EN" "http://www.w3.org/Graphics/SVG/1.1/DTD/svg11.dtd"><svg t="1567732414861" class="icon" viewBox="0 0 1024 1024" version="1.1" xmlns="http://www.w3.org/2000/svg" p-id="2019" xmlns:xlink="http://www.w3.org/1999/xlink" width="200" height="200"><defs><style type="text/css"></style></defs><path d="M512 384c-68.266667 0-132.266667 12.8-196.266667 29.866667l0 132.266667c0 17.066667-8.533333 29.866667-25.6 38.4-42.666667 21.333333-81.066667 46.933333-115.2 81.066667-8.533333 8.533333-17.066667 12.8-29.866667 12.8-12.8 0-21.333333-4.266667-29.866667-12.8l-106.666667-106.666667C4.266667 550.4 0 541.866667 0 529.066667c0-12.8 4.266667-21.333333 12.8-29.866667C140.8 375.466667 320 298.666667 512 298.666667s371.2 76.8 499.2 200.533333c8.533333 8.533333 12.8 17.066667 12.8 29.866667 0 12.8-4.266667 21.333333-12.8 29.866667l-106.666667 106.666667c-8.533333 8.533333-17.066667 12.8-29.866667 12.8-12.8 0-21.333333-4.266667-29.866667-12.8-34.133333-29.866667-72.533333-59.733333-115.2-81.066667-12.8-8.533333-25.6-21.333333-25.6-38.4l0-132.266667C644.266667 396.8 580.266667 384 512 384z" p-id="2020" fill="#ffffff"></path></svg>